<svg width="439" height="439" viewBox="0 0 439 439" fill="none" xmlns="http://www.w3.org/2000/svg">
<path fill-rule="evenodd" clip-rule="evenodd" d="M57.9545 186.686L38.4277 204.205C48.1911 341.171 185.855 336.713 228.812 274.28C235.322 302.948 280.885 324.927 313.428 259.948C314.514 272.157 322.215 296.578 344.346 296.578C365.003 296.578 375.678 268.159 383.826 246.469C386.59 239.113 389.063 232.531 391.535 228.094C424.622 257.292 457.601 327.475 324.82 374.618C324.212 374.618 322.925 374.784 321.041 375.028C302.733 377.394 228.077 387.042 173.487 322.061H139.316C141.485 370.9 202.778 462.212 334.583 433.546C335.479 433.107 336.379 432.668 337.281 432.228C373.537 414.542 414.909 394.36 438.724 291.8C439.267 272.687 439.376 231.599 435.47 220.13C430.589 205.798 398.045 111.831 372.009 216.945C364.416 230.219 344.671 247.843 326.446 212.167V173.944C324.82 170.759 321.239 166.3 319.938 173.944C319.773 174.911 319.609 176.383 319.4 178.246C317.548 194.803 312.238 242.267 272.747 240.835C265.978 240.589 261.231 240.419 258.083 240.307C248.588 237.142 239.943 226.822 243.457 201.02C242.331 202.107 241.188 203.215 240.029 204.339C216.737 226.924 186.826 255.928 149.079 252.962C156.459 228.556 170.883 195.673 207.659 167.401L210.913 189.871L219.049 159.287C258.697 133.11 320.349 112.363 417.571 108.646L430.589 44.9402L347.6 40.1623C322.107 25.2976 267.216 -3.47616 251.594 0.346182C232.068 5.12411 209.287 13.0872 209.287 102.275L220.677 94.3121C210.602 68.8297 249.315 54.1773 272.747 72.0149C228.812 95.3274 145.824 140.499 137.688 251.118C114.071 245.325 87.581 226.624 57.9545 186.686ZM95.3804 22.6431C88.8716 41.7547 77.8064 82.8449 85.617 94.3119C72.1735 102.144 60.3385 111.853 50.0944 122.979L48.1909 19.4577C36.4749 39.8436 35.2105 108.646 36.0429 140.499C-39.1706 248.2 4.58187 445.499 155.588 433.546C145.282 423.989 124.996 397.551 126.298 368.247C97.5501 361.876 35.8241 334.165 18.901 274.28C-2.25298 199.427 95.3804 142.091 121.416 130.943C147.452 119.794 176.741 67.237 175.114 9.90186C167.521 15.2107 140.943 25.1912 95.3804 22.6431Z" fill="#F0D79C"/>
</svg>
