<svg width="100" height="100" viewBox="0 0 100 100" fill="none" xmlns="http://www.w3.org/2000/svg">
<path d="M13.3146 22.2313C13.1375 17.1313 17.1104 12.4271 22.4834 12.4271H77.525C82.8959 12.4271 86.8708 17.1313 86.6938 22.2313C86.5229 27.1313 86.7438 33.4771 88.3417 38.6521C89.9438 43.8438 92.6459 47.125 97.0709 47.5458V52.3271C92.6459 52.7479 89.9438 56.0292 88.3417 61.2208C86.7438 66.3958 86.5229 72.7417 86.6938 77.6417C86.8708 82.7417 82.8979 87.4458 77.525 87.4458H22.4834C17.1125 87.4458 13.1375 82.7417 13.3167 77.6417C13.4875 72.7417 13.2646 66.3958 11.6688 61.2208C10.0667 56.0292 7.35836 52.7479 2.93127 52.3271V47.5458C7.35627 47.125 10.0667 43.8438 11.6688 38.6521C13.2646 33.4792 13.4854 27.1313 13.3146 22.2313Z" fill="#6C19FF"/>
<path d="M52.1708 70.8667C61.2666 70.8667 66.7479 66.4125 66.7479 59.0667C66.7479 53.5146 62.8374 49.4937 57.0291 48.8583V48.6271C61.2958 47.9333 64.6437 43.9708 64.6437 39.5458C64.6437 33.2417 59.6666 29.1354 52.0812 29.1354H35.0145V70.8667H52.1708ZM41.6541 34.4271H50.4833C55.2833 34.4271 58.0083 36.5667 58.0083 40.4417C58.0083 44.5771 54.8374 46.8917 49.0895 46.8917H41.652L41.6541 34.4271ZM41.6541 65.5729V51.8354H50.4249C56.7062 51.8354 59.9645 54.1479 59.9645 58.6604C59.9645 63.1708 56.7937 65.5729 50.8104 65.5729H41.6541Z" fill="url(#paint0_linear_56_131)"/>
<defs>
<linearGradient id="paint0_linear_56_131" x1="37.1791" y1="32.3771" x2="56.4124" y2="64.9021" gradientUnits="userSpaceOnUse">
<stop stop-color="white"/>
<stop offset="1" stop-color="#F1E5FC"/>
</linearGradient>
</defs>
</svg>
