<svg width="128" height="128" viewBox="0 0 128 128" fill="none" xmlns="http://www.w3.org/2000/svg">
<g filter="url(#filter0_d_57_149)">
<path d="M64 120C94.9279 120 120 94.9279 120 64C120 33.0721 94.9279 8 64 8C33.0721 8 8 33.0721 8 64C8 94.9279 33.0721 120 64 120Z" fill="black"/>
</g>
<path d="M64 120C94.9279 120 120 94.9279 120 64C120 33.0721 94.9279 8 64 8C33.0721 8 8 33.0721 8 64C8 94.9279 33.0721 120 64 120Z" stroke="#BABABA" stroke-opacity="0.5" stroke-width="2"/>
<path d="M64 120C94.9279 120 120 94.9279 120 64C120 33.0721 94.9279 8 64 8C33.0721 8 8 33.0721 8 64C8 94.9279 33.0721 120 64 120Z" fill="url(#paint0_linear_57_149)"/>
<g filter="url(#filter1_d_57_149)">
<path d="M12 64.034C12 87.059 26.885 106.506 47.555 113.401C50.155 113.857 51.13 112.296 51.13 110.931C51.13 109.694 51.065 105.597 51.065 101.239C38 103.644 34.62 98.05 33.58 95.124C32.995 93.628 30.46 89.01 28.25 87.774C26.43 86.798 23.83 84.392 28.185 84.327C32.28 84.262 35.205 88.099 36.18 89.66C40.86 97.53 48.335 95.32 51.325 93.953C51.78 90.571 53.145 88.293 54.64 86.993C43.07 85.693 30.98 81.205 30.98 61.303C30.98 55.643 32.995 50.96 36.31 47.318C35.79 46.018 33.97 40.684 36.83 33.528C36.83 33.528 41.185 32.163 51.13 38.862C55.29 37.692 59.71 37.106 64.13 37.106C68.55 37.106 72.97 37.692 77.13 38.862C87.075 32.098 91.43 33.529 91.43 33.529C94.29 40.683 92.47 46.016 91.95 47.317C95.265 50.959 97.28 55.577 97.28 61.301C97.28 81.269 85.125 85.691 73.555 86.993C75.44 88.619 77.065 91.741 77.065 96.619C77.065 103.579 77 109.172 77 110.929C77 112.294 77.975 113.919 80.575 113.399C101.115 106.507 116 86.995 116 64.035C116 35.284 92.73 12 64 12C35.27 12 12 35.285 12 64.034Z" fill="black"/>
</g>
<path d="M12 64.034C12 87.059 26.885 106.506 47.555 113.401C50.155 113.857 51.13 112.296 51.13 110.931C51.13 109.694 51.065 105.597 51.065 101.239C38 103.644 34.62 98.05 33.58 95.124C32.995 93.628 30.46 89.01 28.25 87.774C26.43 86.798 23.83 84.392 28.185 84.327C32.28 84.262 35.205 88.099 36.18 89.66C40.86 97.53 48.335 95.32 51.325 93.953C51.78 90.571 53.145 88.293 54.64 86.993C43.07 85.693 30.98 81.205 30.98 61.303C30.98 55.643 32.995 50.96 36.31 47.318C35.79 46.018 33.97 40.684 36.83 33.528C36.83 33.528 41.185 32.163 51.13 38.862C55.29 37.692 59.71 37.106 64.13 37.106C68.55 37.106 72.97 37.692 77.13 38.862C87.075 32.098 91.43 33.529 91.43 33.529C94.29 40.683 92.47 46.016 91.95 47.317C95.265 50.959 97.28 55.577 97.28 61.301C97.28 81.269 85.125 85.691 73.555 86.993C75.44 88.619 77.065 91.741 77.065 96.619C77.065 103.579 77 109.172 77 110.929C77 112.294 77.975 113.919 80.575 113.399C101.115 106.507 116 86.995 116 64.035C116 35.284 92.73 12 64 12C35.27 12 12 35.285 12 64.034Z" fill="url(#paint1_linear_57_149)"/>
<g filter="url(#filter2_i_57_149)">
<path d="M12 64.034C12 87.059 26.885 106.506 47.555 113.401C50.155 113.857 51.13 112.296 51.13 110.931C51.13 109.694 51.065 105.597 51.065 101.239C38 103.644 34.62 98.05 33.58 95.124C32.995 93.628 30.46 89.01 28.25 87.774C26.43 86.798 23.83 84.392 28.185 84.327C32.28 84.262 35.205 88.099 36.18 89.66C40.86 97.53 48.335 95.32 51.325 93.953C51.78 90.571 53.145 88.293 54.64 86.993C43.07 85.693 30.98 81.205 30.98 61.303C30.98 55.643 32.995 50.96 36.31 47.318C35.79 46.018 33.97 40.684 36.83 33.528C36.83 33.528 41.185 32.163 51.13 38.862C55.29 37.692 59.71 37.106 64.13 37.106C68.55 37.106 72.97 37.692 77.13 38.862C87.075 32.098 91.43 33.529 91.43 33.529C94.29 40.683 92.47 46.016 91.95 47.317C95.265 50.959 97.28 55.577 97.28 61.301C97.28 81.269 85.125 85.691 73.555 86.993C75.44 88.619 77.065 91.741 77.065 96.619C77.065 103.579 77 109.172 77 110.929C77 112.294 77.975 113.919 80.575 113.399C101.115 106.507 116 86.995 116 64.035C116 35.284 92.73 12 64 12C35.27 12 12 35.285 12 64.034Z" fill="url(#paint2_linear_57_149)"/>
</g>
<defs>
<filter id="filter0_d_57_149" x="4" y="6" width="120" height="120" filterUnits="userSpaceOnUse" color-interpolation-filters="sRGB">
<feFlood flood-opacity="0" result="BackgroundImageFix"/>
<feColorMatrix in="SourceAlpha" type="matrix" values="0 0 0 0 0 0 0 0 0 0 0 0 0 0 0 0 0 0 127 0" result="hardAlpha"/>
<feOffset dy="2"/>
<feGaussianBlur stdDeviation="2"/>
<feComposite in2="hardAlpha" operator="out"/>
<feColorMatrix type="matrix" values="0 0 0 0 0 0 0 0 0 0 0 0 0 0 0 0 0 0 0.240942 0"/>
<feBlend mode="normal" in2="BackgroundImageFix" result="effect1_dropShadow_57_149"/>
<feBlend mode="normal" in="SourceGraphic" in2="effect1_dropShadow_57_149" result="shape"/>
</filter>
<filter id="filter1_d_57_149" x="12" y="12" width="104" height="102.498" filterUnits="userSpaceOnUse" color-interpolation-filters="sRGB">
<feFlood flood-opacity="0" result="BackgroundImageFix"/>
<feColorMatrix in="SourceAlpha" type="matrix" values="0 0 0 0 0 0 0 0 0 0 0 0 0 0 0 0 0 0 127 0" result="hardAlpha"/>
<feOffset dy="1"/>
<feColorMatrix type="matrix" values="0 0 0 0 1 0 0 0 0 1 0 0 0 0 1 0 0 0 0.529297 0"/>
<feBlend mode="normal" in2="BackgroundImageFix" result="effect1_dropShadow_57_149"/>
<feBlend mode="normal" in="SourceGraphic" in2="effect1_dropShadow_57_149" result="shape"/>
</filter>
<filter id="filter2_i_57_149" x="12" y="12" width="104" height="101.498" filterUnits="userSpaceOnUse" color-interpolation-filters="sRGB">
<feFlood flood-opacity="0" result="BackgroundImageFix"/>
<feBlend mode="normal" in="SourceGraphic" in2="BackgroundImageFix" result="shape"/>
<feColorMatrix in="SourceAlpha" type="matrix" values="0 0 0 0 0 0 0 0 0 0 0 0 0 0 0 0 0 0 127 0" result="hardAlpha"/>
<feOffset/>
<feGaussianBlur stdDeviation="1"/>
<feComposite in2="hardAlpha" operator="arithmetic" k2="-1" k3="1"/>
<feColorMatrix type="matrix" values="0 0 0 0 0.258824 0 0 0 0 0.137255 0 0 0 0 0.431373 0 0 0 0.70355 0"/>
<feBlend mode="normal" in2="shape" result="effect1_innerShadow_57_149"/>
</filter>
<linearGradient id="paint0_linear_57_149" x1="5608" y1="8" x2="5608" y2="11208" gradientUnits="userSpaceOnUse">
<stop stop-color="#FEFEFE"/>
<stop offset="1" stop-color="#E0E0E0"/>
</linearGradient>
<linearGradient id="paint1_linear_57_149" x1="5212" y1="10161.8" x2="5212" y2="12" gradientUnits="userSpaceOnUse">
<stop stop-color="#492779"/>
<stop offset="1" stop-color="#892793"/>
</linearGradient>
<linearGradient id="paint2_linear_57_149" x1="64" y1="12" x2="64" y2="113.498" gradientUnits="userSpaceOnUse">
<stop stop-color="#89399B"/>
<stop offset="1" stop-color="#5C3988"/>
</linearGradient>
</defs>
</svg>
