<svg width="108" height="108" viewBox="0 0 108 108" fill="none" xmlns="http://www.w3.org/2000/svg">
<path d="M63.0413 53.9187C63.0413 49.0776 58.9937 45.1524 54 45.1524C49.0071 45.1524 44.9587 49.0776 44.9587 53.9187C44.9587 58.7604 49.0071 62.6852 54 62.6852C58.9937 62.6852 63.0413 58.7604 63.0413 53.9187Z" fill="#53C1DE"/>
<path fill-rule="evenodd" clip-rule="evenodd" d="M83.3638 37.6437C85.2731 30.1211 87.673 16.1712 79.2126 11.4418C70.7916 6.73296 59.8334 15.756 54.0469 21.172C48.2774 15.8099 37.0113 6.8255 28.558 11.57C20.1403 16.2946 22.7362 30.0132 24.6878 37.583C16.8355 39.7454 3.375 44.4028 3.375 53.9187C3.375 63.4075 16.8215 68.4747 24.6273 70.635C22.6685 78.2467 20.2026 91.7693 28.631 96.4835C37.1159 101.227 48.3469 92.4564 54.187 86.9812C60.0105 92.4291 70.8635 101.257 79.2862 96.5297C87.7352 91.7875 85.5347 78.0246 83.5829 70.4109C91.1496 68.2459 104.625 63.289 104.625 53.9187C104.625 44.4943 91.0923 39.799 83.3638 37.6437ZM82.4047 66.3761C81.1232 62.4429 79.3935 58.2603 77.2777 53.9396C79.2973 49.7208 80.9598 45.5922 82.2056 41.6843C87.8712 43.2769 100.3 46.9169 100.3 53.9187C100.3 60.9862 88.373 64.6606 82.4047 66.3761ZM77.1188 92.9002C70.8345 96.4271 61.4996 87.9849 57.1988 83.973C60.052 80.9473 62.9032 77.4299 65.6859 73.524C70.581 73.1032 75.2051 72.4147 79.3989 71.4747C80.7725 76.8602 83.4307 89.3575 77.1188 92.9002ZM30.7922 92.85C24.5073 89.3362 27.38 77.2693 28.821 71.6624C32.9681 72.552 37.559 73.1919 42.4656 73.5777C45.2665 77.3995 48.2004 80.9126 51.1569 83.9892C47.5041 87.4152 37.1064 96.3799 30.7922 92.85ZM7.70003 53.9187C7.70003 46.8247 20.0545 43.2111 25.8493 41.6225C27.1165 45.6182 28.7785 49.7961 30.7842 54.0209C28.7525 58.3085 27.0667 62.5526 25.7879 66.5955C20.2625 65.0619 7.70003 61.017 7.70003 53.9187ZM30.725 15.1994C37.0356 11.6578 46.8271 20.2832 51.0162 24.1654C48.0749 27.2279 45.168 30.7145 42.391 34.5144C37.6292 34.9424 33.0708 35.6295 28.8802 36.5502C27.308 30.4449 24.4212 18.7373 30.725 15.1994ZM68.7801 39.0727C72.0107 39.4679 75.1059 39.9938 78.0121 40.637C77.1397 43.3485 76.0522 46.1838 74.7714 49.0904C72.9148 45.6749 70.9219 42.3279 68.7801 39.0727ZM54.0483 27.1623C56.0432 29.2578 58.0412 31.5978 60.0068 34.1364C56.0199 33.9535 52.0266 33.9528 48.0398 34.1337C50.007 31.6186 52.0222 29.2821 54.0483 27.1623ZM33.2657 49.0874C32.0061 46.1909 30.9284 43.3431 30.0484 40.5928C32.9372 39.9661 36.018 39.4537 39.2276 39.0649C37.0798 42.313 35.0902 45.6587 33.2657 49.0874ZM39.3198 69.0717C36.0042 68.713 32.8768 68.2266 29.9888 67.6171C30.8827 64.8186 31.9841 61.9093 33.2706 58.9505C35.1202 62.4149 37.1402 65.7929 39.3198 69.0717ZM54.1681 80.9713C52.1181 78.8265 50.0732 76.4542 48.0762 73.9027C52.0857 74.0553 56.103 74.0556 60.1121 73.8821C58.1405 76.4802 56.1495 78.8559 54.1681 80.9713ZM74.8126 58.7999C76.166 61.7908 77.3067 64.6842 78.2129 67.4355C75.277 68.0852 72.1075 68.6083 68.768 68.9968C70.9256 65.6799 72.9503 62.2809 74.8126 58.7999ZM63.2721 69.5051C57.1391 69.93 50.9679 69.9253 44.8328 69.5398C41.3468 64.6026 38.2435 59.4101 35.5647 54.0196C38.2306 48.6402 41.3114 43.4579 44.7809 38.5283C50.9203 38.0784 57.0976 38.0771 63.237 38.531C66.6768 43.4602 69.7528 48.629 72.4805 53.9598C69.7852 59.3366 66.6883 64.5293 63.2721 69.5051ZM77.0523 15.0748C83.3645 18.6048 80.5548 31.142 79.1758 36.5938C74.9753 35.6538 70.4136 34.9545 65.638 34.5198C62.8557 30.6789 59.9731 27.1862 57.0793 24.1633C61.3221 20.1974 70.8011 11.5793 77.0523 15.0748Z" fill="#53C1DE"/>
</svg>
